<svg version="1.0" xmlns="http://www.w3.org/2000/svg"
 width="300.000000pt" height="300.000000pt" viewBox="0 0 300.000000 300.000000"
 preserveAspectRatio="xMidYMid meet">
<metadata>
Created by potrace 1.16, written by Peter Selinger 2001-2019
</metadata>
<g transform="translate(0.000000,300.000000) scale(0.100000,-0.100000)"
fill="#000000" stroke="none">
<path d="M1270 2880 c-193 -42 -328 -92 -455 -168 -326 -195 -570 -522 -648
-872 -34 -148 -37 -178 -37 -330 0 -152 3 -182 37 -330 74 -331 326 -680 614
-851 205 -121 379 -180 588 -200 58 -5 112 -11 119 -14 18 -6 199 13 302 32
189 35 391 124 549 243 203 152 321 296 430 522 98 204 134 366 134 598 0 169
-19 291 -65 435 -25 75 -107 248 -154 320 -131 205 -350 398 -567 500 -125 58
-196 81 -360 116 -183 38 -308 38 -487 -1z m479 -193 l64 -12 -31 -35 c-26
-28 -32 -43 -32 -80 l0 -45 -74 3 c-54 3 -81 0 -105 -12 l-31 -17 0 59 c0 51
-4 63 -26 85 -28 28 -79 43 -113 32 -11 -3 -33 -19 -48 -35 -25 -27 -30 -29
-87 -24 -107 10 -174 -38 -195 -138 -21 -93 5 -172 72 -222 23 -17 42 -21 100
-20 40 1 116 2 169 2 54 1 106 6 118 12 15 8 27 7 51 -6 25 -12 47 -15 98 -10
77 7 232 7 243 0 5 -3 -13 -32 -39 -64 -27 -32 -60 -76 -75 -98 -27 -39 -29
-40 -65 -30 -123 32 -352 34 -438 4 -21 -8 -44 -12 -50 -10 -5 3 -28 30 -50
61 -50 73 -159 188 -254 270 -119 101 -150 88 -198 -87 -28 -104 -32 -125 -48
-257 -17 -137 -14 -207 16 -383 10 -58 9 -70 -9 -110 -57 -127 -72 -243 -72
-568 0 -138 -4 -242 -9 -240 -34 12 -168 217 -218 333 -56 130 -93 317 -93
470 0 594 458 1111 1050 1184 88 11 288 5 379 -12z m314 -114 c208 -107 393
-287 500 -483 115 -211 173 -478 148 -676 -33 -254 -103 -438 -236 -616 -36
-49 -69 -88 -74 -88 -5 0 -11 132 -14 308 -5 326 -10 372 -65 508 -19 48 -20
55 -6 130 37 202 10 501 -61 684 -41 105 -72 106 -185 9 -45 -39 -86 -67 -90
-63 -9 10 -23 334 -14 334 3 0 47 -21 97 -47z m-747 -28 c10 -8 17 -15 14 -15
-3 -1 -14 -3 -25 -5 -33 -6 -45 -35 -45 -110 0 -73 18 -118 45 -113 30 6 12
-18 -22 -29 -79 -28 -156 21 -168 106 -10 75 14 142 60 169 29 16 117 15 141
-3z m424 -91 c12 -12 11 -14 -13 -14 -31 0 -47 -24 -47 -74 0 -37 30 -69 56
-59 8 3 14 -1 14 -9 0 -10 -19 -19 -52 -27 -92 -22 -158 22 -158 104 0 32 6
47 28 67 15 14 36 28 47 31 32 8 109 -3 125 -19z m-240 -79 l0 -96 -67 3 -68
3 -3 79 c-2 44 -1 85 2 93 4 9 25 13 71 13 l65 0 0 -95z m420 0 l0 -95 -65 0
-65 0 0 95 0 95 65 0 65 0 0 -95z m-844 -331 c24 -34 44 -66 44 -71 0 -11 -53
-43 -72 -43 -8 0 -21 22 -31 53 -9 28 -37 92 -62 141 -25 49 -45 91 -45 94 0
13 129 -122 166 -174z m1044 161 c0 -2 -14 -28 -31 -57 -27 -45 -67 -136 -93
-211 -6 -17 -8 -17 -46 4 -22 13 -40 28 -40 34 0 23 182 235 202 235 4 0 8 -2
8 -5z m-1221 -113 c39 -77 81 -182 81 -202 0 -15 -130 -140 -145 -140 -12 0 2
321 14 363 7 20 14 37 16 37 3 0 18 -26 34 -58z m1296 -57 c9 -91 8 -266 -2
-276 -4 -4 -39 22 -77 59 l-69 67 18 50 c9 27 35 88 57 134 39 81 41 84 53 60
7 -13 16 -55 20 -94z m-534 -120 c138 -26 258 -88 365 -188 80 -74 90 -97 47
-97 -16 -1 -45 -7 -65 -14 -32 -11 -44 -11 -75 0 -85 30 -173 12 -194 -39 -20
-49 -47 -66 -102 -67 -27 0 -70 -9 -97 -21 -43 -19 -50 -19 -72 -6 -12 8 -48
20 -78 26 -30 7 -57 15 -60 19 -3 4 -19 19 -37 33 -31 26 -33 26 -208 27 -97
0 -179 2 -182 5 -17 18 112 153 211 220 145 98 361 138 547 102z m257 -497 l3
-158 -66 0 -65 0 0 153 c0 85 3 157 7 161 4 4 32 6 63 4 l55 -3 3 -157z m239
149 c4 -4 -3 -14 -15 -23 -20 -14 -22 -24 -22 -100 0 -68 3 -84 15 -84 8 0 15
-4 15 -10 0 -5 -7 -10 -15 -10 -9 0 -15 -9 -15 -24 0 -50 -8 -56 -75 -56 -67
0 -75 6 -75 55 0 13 -5 27 -10 30 -7 4 -7 11 -2 18 5 7 12 48 14 91 5 72 8 82
33 104 25 21 36 24 87 20 31 -2 61 -7 65 -11z m-1147 -93 c16 -48 25 -63 33
-55 8 8 8 24 -1 56 -18 66 -17 66 39 63 56 -3 59 -6 80 -75 7 -24 15 -43 19
-43 3 0 13 26 21 57 8 31 21 59 28 61 18 6 12 -24 -31 -163 -31 -101 -36 -110
-60 -113 -24 -3 -28 2 -44 52 -10 31 -21 56 -25 56 -5 0 -16 -25 -25 -55 -16
-50 -20 -55 -46 -55 -15 0 -28 1 -28 3 0 2 -16 48 -36 103 -47 130 -54 155
-48 165 3 5 27 9 54 9 l48 0 22 -66z m1199 -18 c45 -103 51 -180 49 -545 l-3
-344 -79 -53 c-43 -30 -82 -51 -87 -48 -8 4 0 35 21 79 11 24 53 170 70 242
14 62 16 297 2 333 -12 32 -26 119 -23 143 1 9 13 28 27 42 31 31 31 65 -1 95
-33 31 -35 100 -3 100 5 0 17 -20 27 -44z m-1351 -13 c39 -100 46 -135 32
-182 -54 -194 -61 -340 -26 -506 19 -86 50 -186 76 -242 11 -24 20 -45 20 -48
0 -14 -28 0 -106 51 l-84 55 0 334 c0 345 9 449 46 533 18 39 28 40 42 5z
m602 -12 c30 -35 28 -114 -4 -146 -55 -54 -165 -40 -200 26 -17 32 -18 42 -8
75 16 56 52 75 129 71 50 -2 66 -7 83 -26z m266 -7 c40 -49 28 -128 -24 -155
-14 -8 -50 -14 -80 -13 -49 0 -58 4 -83 32 -32 35 -38 79 -16 122 19 38 54 51
121 47 51 -3 62 -7 82 -33z m-475 -184 c15 -12 51 -26 79 -33 48 -11 50 -13
50 -47 -1 -31 -8 -40 -55 -74 -111 -79 -128 -204 -42 -302 62 -70 123 -96 232
-96 108 -1 162 20 230 89 49 49 60 83 53 168 -5 63 -35 109 -103 155 -38 26
-45 36 -45 65 0 31 3 34 49 50 35 11 55 13 73 6 14 -5 84 -9 154 -9 71 1 138
-2 149 -5 34 -11 49 -85 49 -242 0 -186 -33 -321 -119 -489 -37 -74 -43 -80
-88 -97 -123 -45 -236 -63 -402 -63 -166 0 -210 7 -374 57 l-74 22 -43 91
c-88 187 -119 331 -111 513 3 69 12 146 20 170 l14 45 54 3 c30 2 65 2 79 2
91 -5 103 -3 118 19 18 27 17 27 53 2z m398 -190 c64 -36 86 -70 86 -136 0
-44 -4 -58 -25 -79 -25 -24 -28 -25 -85 -14 -35 7 -95 9 -145 5 -47 -4 -98 -8
-114 -9 -24 -2 -34 5 -53 32 -48 71 -15 154 82 208 65 37 182 33 254 -7z"/>
<path d="M1470 1053 c-40 -13 -63 -30 -76 -55 -21 -41 -1 -77 59 -107 55 -27
95 -24 148 12 35 23 45 51 34 94 -10 41 -109 75 -165 56z"/>
</g>
</svg>
